PathFileType	3	(X/Y/Z)	F:\ViconData\AntennenMessung\Messung1\Session1\ID17.trc
DataRate	CameraRate	NumFrames	NumMarkers	Units	OrigDataRate	OrigDataStartFrame	OrigNumFrames
120.0	120.0	4	70	mm	120.0	1	880	
Frame#	Time	Ashort			Along			Atop			A4			Bshort			Blong			Btop			B4			Cshort			Clong			Ctop			C4			Dshort			Dlong			Dtop			D4			Eshort			Elong			Etop			E4			Fshort			Flong			Ftop			F4			Gshort			Glong			Gtop			G4			Hshort			Hlong			Htop			H4			I1			I2			I3			I4			I5			WandAshort			WandAlong			WandAtop			WandA4			WandA15			WandBshort			WandB4			WandB5			WandBtop			WandBlong			WandCshort			WandClong			WandCtop			WandC4			WandC5			Acenter			Aantenna			Bcenter			Bantenna			Ccenter			Cantenna			Dcenter			Dantenna			Ecenter			Eantenna			Fcenter			Fantenna			Gcenter			Gantenna			Hcenter			Hantenna			Icenter			Iantenna			
		X1	Y1	Z1	X2	Y2	Z2	X3	Y3	Z3	X4	Y4	Z4	X5	Y5	Z5	X6	Y6	Z6	X7	Y7	Z7	X8	Y8	Z8	X9	Y9	Z9	X10	Y10	Z10	X11	Y11	Z11	X12	Y12	Z12	X13	Y13	Z13	X14	Y14	Z14	X15	Y15	Z15	X16	Y16	Z16	X17	Y17	Z17	X18	Y18	Z18	X19	Y19	Z19	X20	Y20	Z20	X21	Y21	Z21	X22	Y22	Z22	X23	Y23	Z23	X24	Y24	Z24	X25	Y25	Z25	X26	Y26	Z26	X27	Y27	Z27	X28	Y28	Z28	X29	Y29	Z29	X30	Y30	Z30	X31	Y31	Z31	X32	Y32	Z32	X33	Y33	Z33	X34	Y34	Z34	X35	Y35	Z35	X36	Y36	Z36	X37	Y37	Z37	X38	Y38	Z38	X39	Y39	Z39	X40	Y40	Z40	X41	Y41	Z41	X42	Y42	Z42	X43	Y43	Z43	X44	Y44	Z44	X45	Y45	Z45	X46	Y46	Z46	X47	Y47	Z47	X48	Y48	Z48	X49	Y49	Z49	X50	Y50	Z50	X51	Y51	Z51	X52	Y52	Z52	X53	Y53	Z53	X54	Y54	Z54	X55	Y55	Z55	X56	Y56	Z56	X57	Y57	Z57	X58	Y58	Z58	X59	Y59	Z59	X60	Y60	Z60	X61	Y61	Z61	X62	Y62	Z62	X63	Y63	Z63	X64	Y64	Z64	X65	Y65	Z65	X66	Y66	Z66	X67	Y67	Z67	X68	Y68	Z68	X69	Y69	Z69	X70	Y70	Z70	
1	0	-1038.2185	214.49596	-1644.1493	-1109.4069	204.06435	-1599.3409	-1063.7255	171.86179	-1625.0371	-1054.1531	262.09912	-1634.9594	-1352.958	234.81987	1003.8351	-1281.5221	227.3103	1052.3773	-1322.8555	193.72151	1021.0217	-1284.7035	287.79141	1052.8234	813.95825	187.5838	1209.3318	892.13098	178.50969	1179.2126	844.40881	145.47772	1198.303	860.88422	292.45731	1168.1948	1115.7781	209.47826	-1401.6105	1056.2709	194.007	-1460.3335	1095.187	162.30791	-1423.9041	1069.7823	238.69832	-1426.0051	-1204.6415	1685.9805	-1563.0181	-1129.1129	1688.2444	-1605.9829	-1173.1882	1724.441	-1581.9772	-1134.0408	1580.9315	-1603.8057	-1239.6492	1699.1888	1119.5226	-1309.3389	1698.725	1071.9128	-1270.3954	1736.2557	1096.887	-1245.4219	1592.6041	1110.6899	988.92084	1664.1963	1162.1678	955.87744	1702.2488	1181.0229	922.76013	1661.9756	1215.0262	939.74432	1659.3828	1159.9248	999.09009	1668.363	-1579.4202	1058.9581	1670.1879	-1518.7098	1024.978	1707.9541	-1551.1556	1059.2382	1672.1188	-1585.4656	-184.53864	167.33778	-294.03415	-175.11353	174.70703	-377.51141	-180.23239	132.48317	-335.03891	-211.82834	170.17892	-333.10278	-133.05371	168.9951	-326.21985																																														-1069.1034	209.9702	-1624.7091	-1074.5529	248.58617	-1624.377	-1321.656	231.52931	1025.1055	-1320.4265	270.28452	1029.2915	848.02881	183.62897	1196.2047	851.70734	222.3965	1194.0725	1088.9071	202.49208	-1428.1273	1082.9176	240.81834	-1432.1552	-1171.881	1686.9624	-1581.6539	-1170.5216	1647.9874	-1581.318	-1270.9857	1698.9801	1098.1144	-1271.6031	1660.0062	1099.3977	953.56122	1704.916	1182.3446	972.89423	1731.8685	1161.8313	1026.5664	1669.2006	-1551.5571	1028.1635	1630.2354	-1551.9609	-180.28873	170.66066	-331.67499	-180.34608	209.5101	-328.25189
2	0.0083333333	-1038.2269	214.46887	-1644.1218	-1109.4033	204.04982	-1599.3453	-1063.7607	171.77065	-1624.9442	-1054.1425	262.10275	-1634.9332	-1353.0048	234.77748	1003.9171	-1281.4661	227.2298	1052.4481	-1322.8101	193.52287	1021.0998	-1284.7106	287.7598	1052.858	813.89917	187.65483	1209.4618	892.12109	178.51729	1179.1118	844.362	145.43941	1198.2701	860.94446	292.44562	1168.0945	1115.7806	209.49023	-1401.595	1056.1857	193.89587	-1460.3005	1095.1617	162.30687	-1423.9863	1069.7852	238.6906	-1425.985	-1204.6437	1685.9932	-1563.0339	-1129.1326	1688.2402	-1605.9895	-1173.181	1724.4244	-1581.9597	-1134.0431	1580.9391	-1603.7952	-1239.6572	1699.2024	1119.5361	-1309.3424	1698.7445	1071.9237	-1270.3596	1736.198	1096.8611	-1245.5437	1592.6841	1110.6812	988.83624	1664.1058	1162.1738	955.94531	1702.1466	1181.0081	922.66217	1662.0005	1215.0129	939.77399	1659.4161	1159.9014	999.09961	1668.3689	-1579.4318	1058.969	1670.1914	-1518.7117	1024.9819	1707.9565	-1551.1556	1059.2338	1672.1097	-1585.4771	-184.54097	167.30798	-294.00754	-175.12292	174.70396	-377.50522	-180.21629	132.51346	-335.0571	-211.80281	170.15991	-333.1163	-133.04811	169.01303	-326.21115																																														-1069.1676	209.93965	-1624.6572	-1074.6375	248.55309	-1624.3671	-1321.6022	231.46436	1025.2202	-1320.3685	270.21701	1029.4287	848.03156	183.66762	1196.2185	851.75287	222.43388	1194.1378	1088.7935	202.42847	-1428.1793	1082.7122	240.74272	-1432.1835	-1171.8972	1686.9677	-1581.6622	-1170.5612	1647.9918	-1581.3525	-1270.9836	1698.9966	1098.1322	-1271.6376	1660.0248	1099.464	953.57306	1704.8903	1182.3663	972.97467	1731.8104	1161.8755	1026.5763	1669.2053	-1551.5646	1028.1794	1630.2405	-1551.9758	-180.29085	170.6456	-331.68787	-180.36681	209.49417	-328.25534
3	0.016666667	-1038.252	214.47922	-1644.1334	-1109.4026	204.02861	-1599.3555	-1063.5671	173.10683	-1625.7987	-1054.1477	262.09912	-1634.9388	-1353.043	234.7374	1003.7455	-1281.4573	227.30397	1052.4216	-1322.8517	193.69463	1021.1124	-1284.6755	287.74615	1052.8915	814.03003	187.5208	1209.3531	892.39117	178.38641	1179.2198	844.44928	145.40849	1198.3252	860.89355	292.47205	1168.0897	1115.7798	209.49533	-1401.6072	1056.2748	193.99911	-1460.3373	1095.0227	162.29408	-1423.9181	1070.0085	239.02039	-1425.9119	-1204.6322	1685.9764	-1563.0248	-1129.1733	1688.4211	-1606.7827	-1173.1761	1724.4247	-1581.9729	-1134.0577	1580.9313	-1603.7997	-1239.6523	1699.1904	1119.526	-1309.3264	1698.7219	1071.9126	-1270.377	1736.2301	1096.8781	-1245.525	1592.6649	1110.6796	988.93073	1664.1782	1162.1572	955.75806	1702.2039	1180.9514	922.71155	1661.9078	1215.0385	939.77466	1659.3759	1159.8956	999.08807	1668.369	-1579.439	1058.7891	1669.9148	-1518.7148	1024.9806	1707.9591	-1551.1543	1059.2433	1672.1145	-1585.4749	-184.5442	167.31354	-294.03015	-175.11919	174.72209	-377.50189	-180.22276	132.4771	-335.03922	-211.78381	170.15468	-333.09225	-133.04205	168.99745	-326.20734																																														-1068.5352	210.0312	-1625.0748	-1073.7346	248.67563	-1624.3175	-1321.6392	231.47643	1025.099	-1320.3953	270.24139	1029.1896	848.09814	183.54956	1196.2523	851.80695	222.3156	1194.1455	1088.8104	202.47202	-1428.2252	1082.8844	240.79956	-1432.3339	-1171.9628	1687.0347	-1581.9694	-1170.6976	1648.0553	-1581.9657	-1270.9755	1698.9797	1098.1206	-1271.6018	1660.0063	1099.4205	953.41724	1704.887	1182.2776	972.68378	1731.8546	1161.7216	1026.4493	1669.0775	-1551.6085	1027.9215	1630.1079	-1552.064	-180.29541	170.65329	-331.65909	-180.36935	209.50124	-328.21948
4	0.025	-1038.2334	214.45811	-1644.1292	-1109.4355	204.02573	-1599.3207	-1063.6328	173.03462	-1625.8048	-1054.1627	262.10336	-1634.9434	-1352.978	234.79083	1003.847	-1281.4275	227.05537	1052.49	-1322.828	193.71172	1021.0627	-1284.6615	287.76578	1052.8154	814.0351	187.60426	1209.4216	892.15637	178.42612	1179.2349	844.42365	145.53749	1198.1901	860.83893	292.48425	1167.9972	1115.7672	209.49994	-1401.6039	1056.2855	194.0246	-1460.3519	1095.1371	162.25748	-1423.9515	1069.8165	238.76907	-1425.9778	-1204.5283	1685.8746	-1563.2745	-1129.1282	1688.2507	-1606.0027	-1173.1763	1724.4323	-1581.9781	-1134.0485	1580.9432	-1603.799	-1239.65	1699.1935	1119.528	-1309.302	1698.6716	1071.8984	-1270.3927	1736.2512	1096.8882	-1245.391	1592.5725	1110.6785	988.84033	1664.121	1162.1771	955.87671	1702.1825	1180.9823	922.68799	1661.9716	1215.0372	939.76239	1659.3815	1159.9275	999.10205	1668.3735	-1579.4255	1058.9563	1670.1868	-1518.7108	1024.9918	1707.9573	-1551.1573	1059.2329	1672.1057	-1585.475	-184.556	167.30785	-294.04437	-175.12169	174.69933	-377.51425	-179.98824	132.59982	-335.34473	-211.79939	170.15706	-333.10956	-133.03331	169.00168	-326.20282																																														-1068.5687	210.01343	-1625.0386	-1073.7277	248.66243	-1624.2379	-1321.5675	231.39497	1025.201	-1320.2714	270.14047	1029.4563	848.1424	183.59712	1196.2422	851.93011	222.36201	1194.2583	1088.8517	202.49731	-1428.1874	1082.8651	240.82335	-1432.2219	-1171.8792	1686.9034	-1581.7762	-1170.532	1647.9272	-1581.5665	-1270.9557	1698.9587	1098.1204	-1271.5442	1659.9845	1099.4081	953.54974	1704.8693	1182.3097	972.91309	1731.7843	1161.776	1026.5734	1669.2057	-1551.5592	1028.1637	1630.2402	-1551.9634	-180.26546	170.66933	-332.00491	-180.54837	209.51909	-328.59662
